<mxfile host="app.diagrams.net" modified="2022-07-03T12:23:33.030Z" agent="5.0 (Macintosh; Intel Mac OS X 10_15_7) AppleWebKit/537.36 (KHTML, like Gecko) Chrome/103.0.0.0 Safari/537.36" etag="8eEbXxy26fIzAkI1dvyd" version="20.0.4" type="github">
  <diagram id="WGgsNqBOaULeudGfr_kq" name="第 1 页">
    <mxGraphModel dx="1668" dy="587" grid="1" gridSize="10" guides="1" tooltips="1" connect="1" arrows="1" fold="1" page="1" pageScale="1" pageWidth="827" pageHeight="1169" math="0" shadow="0">
      <root>
        <mxCell id="0" />
        <mxCell id="1" parent="0" />
        <mxCell id="1pz0jt5vzoer_wc0gOAW-33" value="" style="endArrow=none;html=1;rounded=0;strokeWidth=3;fillColor=#e51400;strokeColor=#B20000;" edge="1" parent="1">
          <mxGeometry width="50" height="50" relative="1" as="geometry">
            <mxPoint x="-20" y="680" as="sourcePoint" />
            <mxPoint x="520" y="680" as="targetPoint" />
          </mxGeometry>
        </mxCell>
        <mxCell id="1pz0jt5vzoer_wc0gOAW-34" value="&lt;font style=&quot;font-size: 18px;&quot;&gt;User Space&lt;/font&gt;" style="text;html=1;strokeColor=none;fillColor=none;align=center;verticalAlign=middle;whiteSpace=wrap;rounded=0;" vertex="1" parent="1">
          <mxGeometry x="-20" y="650" width="110" height="30" as="geometry" />
        </mxCell>
        <mxCell id="1pz0jt5vzoer_wc0gOAW-35" value="" style="group" vertex="1" connectable="0" parent="1">
          <mxGeometry x="150" y="470" width="20" height="170" as="geometry" />
        </mxCell>
        <mxCell id="1pz0jt5vzoer_wc0gOAW-36" value="" style="endArrow=none;html=1;rounded=0;fontSize=18;strokeWidth=3;fillColor=#e51400;strokeColor=#B20000;startArrow=none;" edge="1" parent="1pz0jt5vzoer_wc0gOAW-35" source="1pz0jt5vzoer_wc0gOAW-37">
          <mxGeometry width="50" height="50" relative="1" as="geometry">
            <mxPoint x="10" y="170" as="sourcePoint" />
            <mxPoint x="10" as="targetPoint" />
          </mxGeometry>
        </mxCell>
        <mxCell id="1pz0jt5vzoer_wc0gOAW-37" value="T&lt;br&gt;1" style="rounded=0;whiteSpace=wrap;html=1;fontSize=18;" vertex="1" parent="1pz0jt5vzoer_wc0gOAW-35">
          <mxGeometry y="13" width="20" height="140" as="geometry" />
        </mxCell>
        <mxCell id="1pz0jt5vzoer_wc0gOAW-38" value="" style="endArrow=none;html=1;rounded=0;fontSize=18;strokeWidth=3;fillColor=#e51400;strokeColor=#B20000;" edge="1" parent="1pz0jt5vzoer_wc0gOAW-35" target="1pz0jt5vzoer_wc0gOAW-37">
          <mxGeometry width="50" height="50" relative="1" as="geometry">
            <mxPoint x="10" y="170" as="sourcePoint" />
            <mxPoint x="10" as="targetPoint" />
          </mxGeometry>
        </mxCell>
        <mxCell id="1pz0jt5vzoer_wc0gOAW-40" value="" style="group" vertex="1" connectable="0" parent="1">
          <mxGeometry x="270" y="470" width="20" height="170" as="geometry" />
        </mxCell>
        <mxCell id="1pz0jt5vzoer_wc0gOAW-41" value="" style="endArrow=none;html=1;rounded=0;fontSize=18;strokeWidth=3;fillColor=#e51400;strokeColor=#B20000;startArrow=none;" edge="1" parent="1pz0jt5vzoer_wc0gOAW-40" source="1pz0jt5vzoer_wc0gOAW-42">
          <mxGeometry width="50" height="50" relative="1" as="geometry">
            <mxPoint x="10" y="170" as="sourcePoint" />
            <mxPoint x="10" as="targetPoint" />
          </mxGeometry>
        </mxCell>
        <mxCell id="1pz0jt5vzoer_wc0gOAW-42" value="T&lt;br&gt;2" style="rounded=0;whiteSpace=wrap;html=1;fontSize=18;" vertex="1" parent="1pz0jt5vzoer_wc0gOAW-40">
          <mxGeometry y="13" width="20" height="140" as="geometry" />
        </mxCell>
        <mxCell id="1pz0jt5vzoer_wc0gOAW-43" value="" style="endArrow=none;html=1;rounded=0;fontSize=18;strokeWidth=3;fillColor=#e51400;strokeColor=#B20000;" edge="1" parent="1pz0jt5vzoer_wc0gOAW-40" target="1pz0jt5vzoer_wc0gOAW-42">
          <mxGeometry width="50" height="50" relative="1" as="geometry">
            <mxPoint x="10" y="170" as="sourcePoint" />
            <mxPoint x="10" as="targetPoint" />
          </mxGeometry>
        </mxCell>
        <mxCell id="1pz0jt5vzoer_wc0gOAW-44" value="" style="group" vertex="1" connectable="0" parent="1">
          <mxGeometry x="376" y="470" width="20" height="170" as="geometry" />
        </mxCell>
        <mxCell id="1pz0jt5vzoer_wc0gOAW-45" value="" style="endArrow=none;html=1;rounded=0;fontSize=18;strokeWidth=3;fillColor=#e51400;strokeColor=#B20000;startArrow=none;" edge="1" parent="1pz0jt5vzoer_wc0gOAW-44" source="1pz0jt5vzoer_wc0gOAW-46">
          <mxGeometry width="50" height="50" relative="1" as="geometry">
            <mxPoint x="10" y="170" as="sourcePoint" />
            <mxPoint x="10" as="targetPoint" />
          </mxGeometry>
        </mxCell>
        <mxCell id="1pz0jt5vzoer_wc0gOAW-46" value="T&lt;br&gt;3" style="rounded=0;whiteSpace=wrap;html=1;fontSize=18;" vertex="1" parent="1pz0jt5vzoer_wc0gOAW-44">
          <mxGeometry y="13" width="20" height="140" as="geometry" />
        </mxCell>
        <mxCell id="1pz0jt5vzoer_wc0gOAW-47" value="" style="endArrow=none;html=1;rounded=0;fontSize=18;strokeWidth=3;fillColor=#e51400;strokeColor=#B20000;" edge="1" parent="1pz0jt5vzoer_wc0gOAW-44" target="1pz0jt5vzoer_wc0gOAW-46">
          <mxGeometry width="50" height="50" relative="1" as="geometry">
            <mxPoint x="10" y="170" as="sourcePoint" />
            <mxPoint x="10" as="targetPoint" />
          </mxGeometry>
        </mxCell>
        <mxCell id="1pz0jt5vzoer_wc0gOAW-48" value="&lt;span style=&quot;&quot;&gt;Kernel Space&lt;/span&gt;" style="text;html=1;align=center;verticalAlign=middle;resizable=0;points=[];autosize=1;strokeColor=none;fillColor=none;fontSize=18;" vertex="1" parent="1">
          <mxGeometry x="390" y="680" width="130" height="40" as="geometry" />
        </mxCell>
        <mxCell id="1pz0jt5vzoer_wc0gOAW-52" value="" style="group" vertex="1" connectable="0" parent="1">
          <mxGeometry x="150" y="720" width="20" height="170" as="geometry" />
        </mxCell>
        <mxCell id="1pz0jt5vzoer_wc0gOAW-53" value="" style="endArrow=none;html=1;rounded=0;fontSize=18;strokeWidth=3;fillColor=#e51400;strokeColor=#B20000;startArrow=none;" edge="1" parent="1pz0jt5vzoer_wc0gOAW-52" source="1pz0jt5vzoer_wc0gOAW-54">
          <mxGeometry width="50" height="50" relative="1" as="geometry">
            <mxPoint x="10" y="170" as="sourcePoint" />
            <mxPoint x="10" as="targetPoint" />
          </mxGeometry>
        </mxCell>
        <mxCell id="1pz0jt5vzoer_wc0gOAW-54" value="T&lt;br&gt;2" style="rounded=0;whiteSpace=wrap;html=1;fontSize=18;" vertex="1" parent="1pz0jt5vzoer_wc0gOAW-52">
          <mxGeometry y="13" width="20" height="140" as="geometry" />
        </mxCell>
        <mxCell id="1pz0jt5vzoer_wc0gOAW-55" value="" style="endArrow=none;html=1;rounded=0;fontSize=18;strokeWidth=3;fillColor=#e51400;strokeColor=#B20000;" edge="1" parent="1pz0jt5vzoer_wc0gOAW-52" target="1pz0jt5vzoer_wc0gOAW-54">
          <mxGeometry width="50" height="50" relative="1" as="geometry">
            <mxPoint x="10" y="170" as="sourcePoint" />
            <mxPoint x="10" as="targetPoint" />
          </mxGeometry>
        </mxCell>
        <mxCell id="1pz0jt5vzoer_wc0gOAW-56" value="" style="group" vertex="1" connectable="0" parent="1">
          <mxGeometry x="270" y="720" width="20" height="170" as="geometry" />
        </mxCell>
        <mxCell id="1pz0jt5vzoer_wc0gOAW-57" value="" style="endArrow=none;html=1;rounded=0;fontSize=18;strokeWidth=3;fillColor=#e51400;strokeColor=#B20000;startArrow=none;" edge="1" parent="1pz0jt5vzoer_wc0gOAW-56" source="1pz0jt5vzoer_wc0gOAW-58">
          <mxGeometry width="50" height="50" relative="1" as="geometry">
            <mxPoint x="10" y="170" as="sourcePoint" />
            <mxPoint x="10" as="targetPoint" />
          </mxGeometry>
        </mxCell>
        <mxCell id="1pz0jt5vzoer_wc0gOAW-58" value="T&lt;br&gt;3" style="rounded=0;whiteSpace=wrap;html=1;fontSize=18;" vertex="1" parent="1pz0jt5vzoer_wc0gOAW-56">
          <mxGeometry y="13" width="20" height="140" as="geometry" />
        </mxCell>
        <mxCell id="1pz0jt5vzoer_wc0gOAW-59" value="" style="endArrow=none;html=1;rounded=0;fontSize=18;strokeWidth=3;fillColor=#e51400;strokeColor=#B20000;" edge="1" parent="1pz0jt5vzoer_wc0gOAW-56" target="1pz0jt5vzoer_wc0gOAW-58">
          <mxGeometry width="50" height="50" relative="1" as="geometry">
            <mxPoint x="10" y="170" as="sourcePoint" />
            <mxPoint x="10" as="targetPoint" />
          </mxGeometry>
        </mxCell>
        <mxCell id="1pz0jt5vzoer_wc0gOAW-60" value="" style="group" vertex="1" connectable="0" parent="1">
          <mxGeometry x="380" y="720" width="20" height="170" as="geometry" />
        </mxCell>
        <mxCell id="1pz0jt5vzoer_wc0gOAW-61" value="" style="endArrow=none;html=1;rounded=0;fontSize=18;strokeWidth=3;fillColor=#e51400;strokeColor=#B20000;startArrow=none;" edge="1" parent="1pz0jt5vzoer_wc0gOAW-60" source="1pz0jt5vzoer_wc0gOAW-62">
          <mxGeometry width="50" height="50" relative="1" as="geometry">
            <mxPoint x="10" y="170" as="sourcePoint" />
            <mxPoint x="10" as="targetPoint" />
          </mxGeometry>
        </mxCell>
        <mxCell id="1pz0jt5vzoer_wc0gOAW-62" value="T&lt;br&gt;1" style="rounded=0;whiteSpace=wrap;html=1;fontSize=18;" vertex="1" parent="1pz0jt5vzoer_wc0gOAW-60">
          <mxGeometry y="13" width="20" height="140" as="geometry" />
        </mxCell>
        <mxCell id="1pz0jt5vzoer_wc0gOAW-63" value="" style="endArrow=none;html=1;rounded=0;fontSize=18;strokeWidth=3;fillColor=#e51400;strokeColor=#B20000;" edge="1" parent="1pz0jt5vzoer_wc0gOAW-60" target="1pz0jt5vzoer_wc0gOAW-62">
          <mxGeometry width="50" height="50" relative="1" as="geometry">
            <mxPoint x="10" y="170" as="sourcePoint" />
            <mxPoint x="10" as="targetPoint" />
          </mxGeometry>
        </mxCell>
        <mxCell id="1pz0jt5vzoer_wc0gOAW-64" value="" style="endArrow=classic;startArrow=classic;html=1;rounded=0;fontSize=18;strokeWidth=2;" edge="1" parent="1">
          <mxGeometry width="50" height="50" relative="1" as="geometry">
            <mxPoint x="160" y="640" as="sourcePoint" />
            <mxPoint x="280" y="720" as="targetPoint" />
          </mxGeometry>
        </mxCell>
        <mxCell id="1pz0jt5vzoer_wc0gOAW-65" value="" style="endArrow=classic;startArrow=classic;html=1;rounded=0;fontSize=18;strokeWidth=2;" edge="1" parent="1">
          <mxGeometry width="50" height="50" relative="1" as="geometry">
            <mxPoint x="160" y="720" as="sourcePoint" />
            <mxPoint x="390" y="640" as="targetPoint" />
          </mxGeometry>
        </mxCell>
        <mxCell id="1pz0jt5vzoer_wc0gOAW-66" value="" style="endArrow=classic;startArrow=classic;html=1;rounded=0;fontSize=18;strokeWidth=2;" edge="1" parent="1">
          <mxGeometry width="50" height="50" relative="1" as="geometry">
            <mxPoint x="390" y="720" as="sourcePoint" />
            <mxPoint x="280" y="640" as="targetPoint" />
          </mxGeometry>
        </mxCell>
        <mxCell id="1pz0jt5vzoer_wc0gOAW-67" value="CPU Scheduler" style="rounded=1;whiteSpace=wrap;html=1;fontSize=18;strokeWidth=2;fillColor=#e51400;fontColor=#ffffff;strokeColor=#B20000;" vertex="1" parent="1">
          <mxGeometry x="137" y="890" width="280" height="40" as="geometry" />
        </mxCell>
        <mxCell id="1pz0jt5vzoer_wc0gOAW-70" value="" style="group" vertex="1" connectable="0" parent="1">
          <mxGeometry x="460" y="470" width="20" height="170" as="geometry" />
        </mxCell>
        <mxCell id="1pz0jt5vzoer_wc0gOAW-71" value="" style="endArrow=none;html=1;rounded=0;fontSize=18;strokeWidth=3;fillColor=#e51400;strokeColor=#B20000;startArrow=none;" edge="1" parent="1pz0jt5vzoer_wc0gOAW-70" source="1pz0jt5vzoer_wc0gOAW-72">
          <mxGeometry width="50" height="50" relative="1" as="geometry">
            <mxPoint x="10" y="170" as="sourcePoint" />
            <mxPoint x="10" as="targetPoint" />
          </mxGeometry>
        </mxCell>
        <mxCell id="1pz0jt5vzoer_wc0gOAW-72" value="T&lt;br&gt;4" style="rounded=0;whiteSpace=wrap;html=1;fontSize=18;" vertex="1" parent="1pz0jt5vzoer_wc0gOAW-70">
          <mxGeometry y="13" width="20" height="140" as="geometry" />
        </mxCell>
        <mxCell id="1pz0jt5vzoer_wc0gOAW-73" value="" style="endArrow=none;html=1;rounded=0;fontSize=18;strokeWidth=3;fillColor=#e51400;strokeColor=#B20000;" edge="1" parent="1pz0jt5vzoer_wc0gOAW-70" target="1pz0jt5vzoer_wc0gOAW-72">
          <mxGeometry width="50" height="50" relative="1" as="geometry">
            <mxPoint x="10" y="170" as="sourcePoint" />
            <mxPoint x="10" as="targetPoint" />
          </mxGeometry>
        </mxCell>
        <mxCell id="1pz0jt5vzoer_wc0gOAW-74" value="" style="endArrow=classic;startArrow=classic;html=1;rounded=0;fontSize=18;strokeWidth=2;" edge="1" parent="1">
          <mxGeometry width="50" height="50" relative="1" as="geometry">
            <mxPoint x="280" y="720" as="sourcePoint" />
            <mxPoint x="470" y="640" as="targetPoint" />
          </mxGeometry>
        </mxCell>
        <mxCell id="1pz0jt5vzoer_wc0gOAW-77" value="" style="group" vertex="1" connectable="0" parent="1">
          <mxGeometry x="60" y="470" width="20" height="170" as="geometry" />
        </mxCell>
        <mxCell id="1pz0jt5vzoer_wc0gOAW-78" value="" style="endArrow=none;html=1;rounded=0;fontSize=18;strokeWidth=3;fillColor=#e51400;strokeColor=#B20000;startArrow=none;" edge="1" parent="1pz0jt5vzoer_wc0gOAW-77" source="1pz0jt5vzoer_wc0gOAW-79">
          <mxGeometry width="50" height="50" relative="1" as="geometry">
            <mxPoint x="10" y="170" as="sourcePoint" />
            <mxPoint x="10" as="targetPoint" />
          </mxGeometry>
        </mxCell>
        <mxCell id="1pz0jt5vzoer_wc0gOAW-79" value="T&lt;br&gt;5" style="rounded=0;whiteSpace=wrap;html=1;fontSize=18;" vertex="1" parent="1pz0jt5vzoer_wc0gOAW-77">
          <mxGeometry y="13" width="20" height="140" as="geometry" />
        </mxCell>
        <mxCell id="1pz0jt5vzoer_wc0gOAW-80" value="" style="endArrow=none;html=1;rounded=0;fontSize=18;strokeWidth=3;fillColor=#e51400;strokeColor=#B20000;" edge="1" parent="1pz0jt5vzoer_wc0gOAW-77" target="1pz0jt5vzoer_wc0gOAW-79">
          <mxGeometry width="50" height="50" relative="1" as="geometry">
            <mxPoint x="10" y="170" as="sourcePoint" />
            <mxPoint x="10" as="targetPoint" />
          </mxGeometry>
        </mxCell>
        <mxCell id="1pz0jt5vzoer_wc0gOAW-83" value="" style="endArrow=classic;startArrow=classic;html=1;rounded=0;fontSize=18;strokeWidth=2;" edge="1" parent="1">
          <mxGeometry width="50" height="50" relative="1" as="geometry">
            <mxPoint x="160" y="720" as="sourcePoint" />
            <mxPoint x="70" y="640" as="targetPoint" />
          </mxGeometry>
        </mxCell>
      </root>
    </mxGraphModel>
  </diagram>
</mxfile>
